<?xml version="1.0" standalone="no"?>
<!DOCTYPE svg PUBLIC "-//W3C//DTD SVG 20010904//EN"
 "http://www.w3.org/TR/2001/REC-SVG-20010904/DTD/svg10.dtd">
<svg version="1.0" xmlns="http://www.w3.org/2000/svg"
 width="570.000000pt" height="570.000000pt" viewBox="0 0 570.000000 570.000000"
 preserveAspectRatio="xMidYMid meet">
<metadata>
Created by potrace 1.11, written by Peter Selinger 2001-2013
</metadata>
<g transform="translate(0.000000,570.000000) scale(0.100000,-0.100000)"
fill="#000000" stroke="none">
<path d="M3826 5687 c3 -9 12 -18 20 -21 8 -3 14 -11 14 -17 0 -6 11 -22 24
-34 13 -12 27 -32 31 -45 4 -13 14 -30 21 -38 8 -7 14 -20 14 -28 0 -8 4 -14
9 -14 5 0 12 -16 15 -35 4 -19 11 -35 15 -35 5 0 12 -20 15 -45 4 -25 11 -45
15 -45 5 0 12 -34 16 -75 4 -41 11 -75 16 -75 5 0 9 -96 9 -225 0 -124 -4
-225 -9 -225 -4 0 -11 -44 -15 -97 -4 -54 -11 -99 -16 -101 -6 -2 -10 -9 -10
-16 0 -6 -9 -19 -20 -29 -11 -9 -20 -23 -20 -31 0 -14 -21 -26 -46 -26 -9 0
-14 11 -14 35 0 38 -19 48 -27 15 -3 -11 -9 -20 -13 -20 -5 0 -11 -13 -15 -30
-4 -16 -10 -30 -15 -30 -5 0 -11 -13 -15 -30 -4 -16 -10 -30 -15 -30 -4 0 -11
-11 -14 -25 -4 -14 -11 -25 -16 -25 -6 0 -10 -7 -10 -15 0 -9 -6 -18 -14 -21
-8 -3 -17 -16 -20 -30 -4 -13 -11 -24 -16 -24 -6 0 -10 -6 -10 -13 0 -7 -13
-24 -30 -37 -16 -14 -29 -30 -30 -36 0 -14 -107 -124 -119 -124 -5 0 -28 -18
-51 -41 -31 -30 -44 -51 -47 -80 -3 -21 -9 -39 -13 -39 -4 0 -11 -25 -15 -55
-3 -30 -10 -55 -15 -55 -4 0 -11 -16 -14 -35 -4 -19 -11 -35 -16 -35 -4 0 -11
-13 -15 -30 -4 -17 -11 -30 -16 -30 -5 0 -11 -11 -15 -24 -3 -14 -12 -27 -20
-30 -8 -3 -14 -12 -14 -21 0 -8 -4 -15 -9 -15 -5 0 -13 -9 -16 -21 -10 -31
-84 -99 -108 -99 -18 0 -19 4 -13 47 3 26 10 49 15 52 4 4 11 23 15 44 4 20
11 37 15 37 5 0 12 16 15 35 4 19 11 35 16 35 6 0 10 7 10 15 0 8 -3 15 -8 15
-10 0 -42 -38 -42 -50 0 -6 -6 -13 -14 -16 -8 -3 -17 -16 -20 -30 -4 -13 -10
-24 -15 -24 -5 0 -12 -13 -16 -30 -4 -17 -10 -30 -15 -30 -5 0 -11 -13 -15
-30 -4 -16 -10 -30 -15 -30 -5 0 -11 -13 -15 -30 -4 -16 -10 -30 -15 -30 -4 0
-11 -19 -15 -42 -4 -24 -11 -45 -15 -48 -4 -3 -11 -31 -15 -62 -6 -49 -5 -58
9 -58 8 0 18 11 22 25 7 29 19 32 40 10 9 -8 11 -15 6 -15 -6 0 -13 -13 -17
-30 -4 -17 -11 -30 -16 -30 -5 0 -11 -11 -15 -25 -3 -14 -10 -25 -15 -25 -5 0
-9 -9 -9 -21 0 -17 4 -19 23 -13 12 4 25 11 28 16 3 5 31 12 62 15 32 3 57 10
57 14 0 12 117 12 122 0 2 -4 24 -11 51 -15 39 -6 47 -5 47 9 0 9 12 18 30 22
17 3 30 9 30 14 0 5 61 9 135 9 83 0 135 -4 135 -10 0 -5 16 -10 35 -10 37 0
68 23 79 58 4 11 13 23 21 26 8 3 15 10 15 16 0 15 169 184 193 193 9 3 17 11
17 16 0 6 17 13 38 17 20 4 39 10 42 15 3 4 19 9 35 11 28 3 30 1 30 -29 0
-20 5 -33 12 -33 7 0 13 6 13 13 0 7 9 20 20 30 11 9 20 23 20 31 0 8 7 16 15
20 8 3 15 12 15 21 0 8 4 15 10 15 5 0 12 11 16 24 3 14 12 27 20 30 8 3 14
12 14 21 0 8 4 15 10 15 5 0 12 11 16 24 3 14 12 27 20 30 8 3 14 12 14 21 0
8 4 15 10 15 5 0 12 11 16 24 3 14 13 27 21 31 14 5 15 21 10 118 -4 61 -11
113 -17 115 -13 5 -13 59 0 64 5 2 13 44 16 93 6 77 11 93 31 112 18 17 23 32
23 73 0 27 -4 50 -9 50 -4 0 -11 48 -15 107 -4 59 -11 110 -15 113 -4 3 -11
36 -15 75 -4 38 -11 72 -15 75 -5 3 -12 31 -16 63 -4 31 -11 57 -15 57 -4 0
-11 20 -14 45 -4 25 -11 45 -15 45 -5 0 -11 18 -15 40 -3 22 -10 40 -15 40 -5
0 -12 16 -15 35 -4 19 -11 35 -16 35 -4 0 -11 14 -15 30 -4 17 -10 30 -15 30
-5 0 -11 14 -15 30 -4 17 -10 30 -15 30 -5 0 -11 14 -15 30 -4 17 -11 30 -16
30 -5 0 -11 11 -15 24 -3 14 -12 27 -20 30 -8 3 -14 11 -14 17 0 6 -11 22 -25
35 -14 13 -25 27 -25 33 0 12 -179 191 -191 191 -6 0 -20 11 -33 25 -13 14
-28 25 -34 25 -6 0 -15 6 -19 14 -4 8 -20 18 -36 21 -22 6 -26 4 -21 -8z"/>
<path d="M1880 5682 c0 -6 -13 -13 -30 -17 -16 -4 -30 -11 -30 -16 0 -5 -6 -9
-14 -9 -8 0 -21 -6 -28 -14 -8 -7 -25 -17 -38 -21 -13 -4 -35 -21 -49 -36 -14
-16 -29 -29 -34 -29 -12 0 -77 -66 -77 -79 0 -6 -4 -11 -10 -11 -5 0 -12 -11
-16 -25 -3 -14 -10 -25 -14 -25 -5 0 -11 -13 -15 -30 -4 -16 -11 -30 -16 -30
-5 0 -9 -7 -9 -15 0 -9 -6 -18 -14 -21 -8 -3 -17 -16 -20 -30 -4 -13 -11 -24
-16 -24 -6 0 -10 -7 -10 -15 0 -9 -6 -18 -14 -21 -8 -3 -18 -19 -21 -35 -4
-16 -10 -29 -15 -29 -5 0 -11 -13 -15 -30 -4 -16 -10 -30 -15 -30 -4 0 -10
-18 -14 -40 -3 -22 -10 -40 -16 -40 -5 0 -12 -20 -16 -45 -3 -25 -10 -45 -15
-45 -4 0 -11 -22 -15 -50 -4 -27 -10 -50 -14 -50 -5 0 -11 -27 -15 -60 -4 -33
-11 -60 -15 -60 -4 0 -11 -40 -15 -90 -4 -49 -11 -90 -15 -90 -5 0 -11 -58
-15 -130 -4 -71 -11 -130 -16 -130 -5 0 -9 -9 -9 -20 0 -11 7 -20 15 -20 8 0
15 7 15 15 0 25 47 19 54 -7 8 -32 -5 -218 -16 -218 -4 0 -8 -47 -8 -105 0
-58 4 -105 9 -105 5 0 11 -18 15 -40 3 -22 10 -40 15 -40 5 0 12 -13 16 -29 3
-16 13 -32 21 -35 8 -3 14 -12 14 -21 0 -8 4 -15 10 -15 5 0 12 -11 16 -24 3
-14 12 -27 20 -30 8 -3 14 -12 14 -21 0 -8 4 -15 9 -15 5 0 13 -9 16 -20 6
-20 70 -90 81 -90 3 0 13 7 21 16 16 15 61 12 73 -5 3 -4 17 -11 33 -15 15 -3
27 -11 27 -16 0 -6 7 -10 15 -10 9 0 18 -7 21 -15 4 -8 12 -15 19 -15 15 0
165 -146 165 -160 0 -12 99 -110 110 -110 6 0 10 4 10 9 0 16 100 23 227 16
l124 -7 6 -30 c6 -30 6 -30 57 -23 28 3 53 10 54 16 5 11 122 12 122 0 0 -4
19 -11 41 -14 23 -3 45 -10 48 -15 3 -5 18 -12 34 -16 15 -3 27 -11 27 -16 0
-6 7 -10 15 -10 8 0 15 5 15 10 0 6 -4 10 -10 10 -5 0 -10 7 -10 15 0 9 -7 18
-15 21 -8 4 -15 12 -15 19 0 8 -7 21 -16 30 -22 22 -32 105 -13 105 16 0 49
-34 49 -50 0 -6 7 -10 15 -10 11 0 15 12 15 45 0 25 -4 45 -9 45 -5 0 -12 20
-15 45 -4 25 -11 45 -16 45 -5 0 -11 14 -15 30 -4 17 -10 30 -15 30 -5 0 -11
14 -15 30 -4 17 -10 30 -15 30 -5 0 -11 14 -15 30 -4 17 -10 30 -15 30 -4 0
-11 11 -14 25 -4 14 -10 25 -15 25 -5 0 -12 14 -16 30 -4 17 -11 30 -16 30 -5
0 -9 7 -9 15 0 9 -7 18 -15 21 -8 4 -15 12 -15 19 0 8 -6 20 -13 27 -8 7 -17
20 -20 28 -4 8 -4 2 -1 -15 3 -16 9 -32 14 -35 5 -3 12 -18 15 -33 4 -15 11
-27 16 -27 4 0 11 -17 15 -37 4 -21 11 -41 17 -44 16 -11 22 -159 7 -159 -13
0 -90 73 -90 85 0 4 -11 18 -24 30 -13 12 -27 32 -31 43 -3 12 -10 22 -15 22
-5 0 -11 14 -15 30 -4 17 -10 30 -15 30 -5 0 -11 14 -15 30 -4 17 -11 30 -15
30 -5 0 -12 16 -16 35 -3 19 -10 35 -15 35 -5 0 -12 18 -15 40 -4 22 -10 40
-14 40 -4 0 -11 16 -14 35 -4 19 -11 35 -16 35 -6 0 -10 6 -10 14 0 19 -87
106 -106 106 -8 0 -14 6 -14 14 0 8 -20 35 -45 59 -25 25 -45 49 -45 54 0 5
-9 16 -20 26 -11 9 -20 23 -20 31 0 8 -7 16 -15 20 -8 3 -15 12 -15 21 0 8 -4
15 -10 15 -5 0 -12 11 -16 25 -3 14 -10 25 -14 25 -5 0 -11 13 -15 29 -3 16
-13 32 -21 35 -8 3 -14 17 -14 31 0 14 -4 25 -9 25 -5 0 -12 13 -16 29 -3 16
-13 32 -22 35 -13 5 -14 1 -10 -24 7 -33 0 -60 -15 -60 -13 0 -63 51 -71 73
-3 9 -10 17 -15 17 -5 0 -12 18 -16 40 -3 22 -10 40 -15 40 -5 0 -12 27 -16
60 -4 33 -11 60 -16 60 -5 0 -9 82 -9 185 0 102 4 185 9 185 4 0 11 39 15 87
3 48 10 90 15 93 4 3 11 29 14 59 4 30 10 57 15 60 5 3 12 23 16 44 4 20 11
37 15 37 5 0 12 16 15 35 4 19 11 35 15 35 5 0 12 11 15 25 4 14 11 25 16 25
6 0 10 7 10 15 0 9 7 18 15 21 8 3 17 16 21 27 4 12 14 27 23 34 9 6 13 15 8
19 -4 4 -7 2 -7 -4z"/>
<path d="M4000 3035 c0 -8 -4 -15 -9 -15 -5 0 -11 -18 -15 -40 -7 -43 -18 -49
-43 -25 -22 22 -47 14 -52 -15 -5 -42 -45 -55 -54 -19 -8 29 -31 19 -35 -14
-2 -15 -7 -27 -12 -27 -5 0 -10 -14 -12 -32 -4 -37 -23 -48 -31 -17 -8 28 -31
19 -35 -14 -2 -15 -7 -27 -12 -27 -4 0 -11 -19 -15 -42 -11 -65 -48 -75 -60
-17 -4 16 -10 29 -15 29 -4 0 -11 11 -14 25 -4 14 -11 25 -16 25 -5 0 -12 -11
-16 -25 -3 -14 -10 -25 -14 -25 -4 0 -11 -16 -14 -35 -4 -19 -11 -35 -16 -35
-6 0 -10 -11 -10 -25 0 -35 -27 -32 -35 5 -4 17 -11 30 -16 30 -5 0 -9 10 -9
23 0 28 -32 58 -46 43 -6 -6 -13 -19 -17 -28 -3 -10 -11 -18 -16 -18 -5 0 -12
-13 -16 -30 -4 -16 -10 -30 -15 -30 -4 0 -11 -11 -14 -25 -7 -27 -36 -35 -36
-10 0 8 -4 15 -10 15 -5 0 -10 11 -10 25 0 18 -5 25 -20 25 -11 0 -20 -7 -20
-15 0 -8 -4 -15 -9 -15 -5 0 -12 -13 -16 -30 -4 -16 -11 -30 -16 -30 -5 0 -11
-11 -15 -25 -3 -14 -10 -25 -15 -25 -5 0 -9 -6 -9 -13 0 -13 -35 -47 -49 -47
-5 0 -12 32 -15 70 -4 39 -11 70 -15 70 -5 0 -11 9 -14 20 -3 11 -12 20 -21
20 -9 0 -16 -8 -16 -20 0 -11 -4 -20 -10 -20 -5 0 -10 -11 -10 -25 0 -14 -7
-28 -15 -31 -8 -4 -15 -12 -15 -19 0 -18 -58 -75 -75 -75 -18 0 -45 28 -45 46
0 8 -4 14 -9 14 -5 0 -12 14 -16 30 -4 17 -10 30 -15 30 -4 0 -11 18 -15 41
-6 36 -34 79 -51 79 -17 0 -33 -33 -39 -83 -4 -32 -11 -57 -15 -57 -4 0 -10
-22 -14 -50 -4 -33 -11 -50 -21 -50 -18 0 -45 27 -45 46 0 8 -4 14 -9 14 -6 0
-13 20 -17 45 -3 25 -10 45 -14 45 -4 0 -10 14 -14 31 -7 39 -28 59 -60 59
-22 0 -27 -5 -32 -40 -4 -22 -10 -40 -15 -40 -5 0 -9 -7 -9 -15 0 -28 -28 -15
-35 15 -4 17 -11 30 -16 30 -5 0 -11 11 -15 24 -3 14 -12 27 -20 30 -8 3 -14
10 -14 16 0 15 -25 40 -40 40 -17 0 -38 -25 -46 -54 -3 -14 -10 -26 -14 -26
-5 0 -12 -20 -16 -45 -3 -25 -10 -45 -15 -45 -5 0 -9 -7 -9 -16 0 -13 -2 -13
-13 -2 -8 7 -17 45 -20 83 -4 38 -11 71 -17 73 -5 2 -10 12 -10 22 0 42 -57
67 -67 30 -6 -23 -33 -27 -33 -5 0 8 -4 15 -9 15 -5 0 -11 9 -14 20 -6 24 -30
26 -51 5 -24 -24 -35 -18 -42 25 -8 47 -39 64 -61 34 -12 -16 -15 -17 -23 -4
-5 8 -10 34 -10 57 0 24 -5 43 -12 46 -21 6 -48 -4 -48 -19 0 -8 -7 -14 -15
-14 -8 0 -15 -4 -15 -10 0 -5 -4 -10 -10 -10 -5 0 -10 10 -10 23 0 48 -11 68
-34 61 -28 -9 -27 -7 -33 -53 -3 -23 -10 -41 -14 -41 -5 0 -9 -34 -9 -75 0
-41 4 -75 9 -75 5 0 12 -40 16 -90 4 -49 11 -90 16 -90 5 0 9 -12 9 -26 0 -23
2 -24 15 -10 8 8 15 22 15 30 0 9 6 16 14 16 14 0 26 -42 26 -91 0 -16 5 -29
10 -29 6 0 11 -17 11 -37 1 -24 3 -29 6 -15 2 12 8 22 13 22 4 0 10 36 11 79
2 44 8 83 12 87 12 12 27 -17 27 -53 0 -18 4 -33 9 -33 5 0 12 -24 15 -54 8
-58 25 -75 51 -50 13 14 15 14 15 0 0 -9 4 -16 9 -16 5 0 12 -25 16 -55 3 -30
10 -55 14 -55 5 0 11 -22 15 -50 11 -83 26 -57 26 45 0 74 3 95 14 95 13 0 26
-59 26 -121 0 -16 4 -29 9 -29 4 0 11 -27 15 -60 4 -33 11 -60 15 -60 5 0 12
-16 15 -35 4 -19 11 -35 16 -35 6 0 13 -18 16 -40 4 -22 10 -40 15 -40 4 0 10
-8 13 -17 3 -10 3 9 1 41 -7 107 6 296 22 296 7 0 13 -11 13 -25 0 -14 4 -25
9 -25 6 0 13 -20 17 -45 3 -25 10 -45 15 -45 4 0 11 -20 15 -45 3 -25 10 -45
14 -45 5 0 11 -13 15 -30 4 -17 10 -30 15 -30 4 0 10 -13 13 -29 3 -16 13 -31
21 -34 13 -5 14 9 9 111 -3 64 -10 119 -15 120 -11 5 -11 32 1 32 4 0 11 34
13 76 3 42 10 79 15 83 6 3 13 16 17 29 4 12 12 22 17 22 5 0 9 7 9 16 0 13 2
13 13 2 9 -9 16 -57 20 -148 4 -74 11 -136 16 -139 5 -4 12 -36 15 -73 4 -38
11 -68 16 -68 5 0 12 -29 15 -65 4 -36 11 -65 15 -65 5 0 12 -25 15 -55 4 -30
11 -55 16 -55 4 0 11 -22 15 -50 4 -27 10 -50 14 -50 4 0 10 -18 14 -40 3 -22
10 -40 15 -40 5 0 11 -13 15 -30 10 -52 26 -33 26 30 0 33 -4 60 -9 60 -5 0
-12 51 -16 113 -4 65 -12 115 -19 119 -16 10 -15 386 0 396 7 4 14 18 15 32 2
14 12 26 22 28 15 3 17 -7 17 -102 0 -58 4 -106 8 -106 5 0 12 -46 16 -102 3
-56 10 -105 15 -108 5 -3 12 -31 16 -62 4 -32 11 -58 15 -58 4 0 10 -22 14
-50 4 -27 11 -50 16 -50 6 0 10 -7 10 -15 0 -8 6 -15 14 -15 11 0 14 43 18
221 3 144 8 223 15 227 6 4 15 40 18 80 4 39 11 72 15 72 4 0 10 14 14 31 3
16 12 37 21 45 23 24 53 -14 61 -78 4 -29 12 -56 18 -60 8 -5 11 -113 11 -356
0 -259 3 -346 11 -337 7 6 15 39 19 73 4 34 10 62 15 62 4 0 11 34 15 75 4 41
10 75 15 75 4 0 11 44 15 98 4 53 11 99 16 103 5 3 12 64 15 137 4 73 11 132
16 132 4 0 8 13 8 30 0 29 1 29 20 13 11 -10 20 -28 20 -40 0 -13 5 -23 10
-23 6 0 10 -68 10 -185 0 -102 -4 -185 -9 -185 -4 0 -11 -46 -15 -102 -4 -57
-11 -104 -17 -106 -5 -2 -9 -24 -9 -48 0 -32 4 -44 15 -44 8 0 15 9 15 20 0
11 4 20 9 20 5 0 12 20 15 45 4 25 11 45 16 45 4 0 11 27 15 60 4 33 11 60 15
60 5 0 12 25 15 55 4 30 11 55 15 55 4 0 11 33 15 73 4 39 11 74 16 77 4 3 11
72 15 152 5 109 10 148 20 152 11 4 14 -13 14 -84 0 -53 4 -90 10 -90 6 0 10
-9 10 -20 0 -11 -4 -20 -8 -20 -5 0 -12 -84 -15 -187 -4 -115 -10 -189 -17
-191 -13 -5 -13 -92 0 -92 5 0 12 11 16 25 3 14 10 25 14 25 5 0 12 20 16 45
3 25 10 45 14 45 4 0 11 16 14 35 4 19 11 35 16 35 6 0 10 11 10 25 0 16 6 25
15 25 11 0 15 -12 15 -45 0 -25 -4 -45 -10 -45 -5 0 -10 -13 -10 -30 0 -16 4
-30 9 -30 5 0 12 14 16 30 4 17 10 30 15 30 4 0 11 16 14 35 4 19 11 35 16 35
6 0 13 18 16 40 4 22 10 40 15 40 4 0 11 16 15 35 3 19 10 35 14 35 4 0 10 18
14 40 3 22 10 40 15 40 5 0 11 23 15 50 4 28 11 50 16 50 6 0 10 12 10 28 0
32 16 60 27 48 4 -4 9 -63 11 -132 4 -131 16 -161 27 -69 4 30 11 55 15 55 4
0 11 27 15 60 4 33 11 60 16 60 4 0 11 23 15 50 4 28 10 50 15 50 5 0 9 13 9
30 0 22 4 28 15 24 10 -4 15 -20 15 -45 0 -27 4 -39 14 -39 10 0 16 19 21 60
4 33 11 60 16 60 5 0 9 12 9 28 0 31 15 60 27 49 4 -4 9 -37 11 -72 2 -36 8
-65 12 -65 5 0 11 27 15 60 4 33 11 60 15 60 5 0 12 31 16 69 4 45 11 72 20
75 8 3 14 -1 14 -9 0 -8 5 -15 10 -15 6 0 10 -20 10 -45 0 -31 4 -45 14 -45
13 0 26 59 26 121 0 16 5 29 10 29 6 0 10 47 10 120 0 66 -4 120 -9 120 -5 0
-12 11 -15 25 -7 27 -36 35 -36 10z"/>
<path d="M3701 1888 c0 -89 -5 -158 -10 -158 -25 0 -41 14 -41 36 0 15 -6 24
-15 24 -17 0 -21 -16 -5 -22 6 -2 13 -28 17 -58 3 -30 10 -58 15 -61 5 -3 12
-60 15 -125 6 -109 5 -117 -10 -103 -9 9 -19 28 -22 42 -4 14 -14 28 -22 31
-14 6 -15 -7 -9 -109 7 -112 3 -155 -14 -155 -4 0 -11 12 -14 26 -4 15 -13 33
-21 41 -13 12 -14 -3 -8 -120 3 -74 3 -146 -1 -160 -7 -28 -36 -38 -36 -12 0
8 -4 15 -9 15 -5 0 -12 25 -16 55 -3 30 -10 55 -15 55 -5 0 -11 14 -15 30 -4
17 -11 30 -16 30 -11 0 -12 -87 0 -92 4 -1 11 -56 15 -120 6 -100 5 -118 -7
-118 -9 0 -17 14 -21 35 -4 19 -11 35 -16 35 -5 0 -11 8 -13 18 -3 9 -5 -72
-6 -180 -1 -169 -3 -198 -16 -198 -9 0 -15 9 -15 25 0 14 -4 25 -9 25 -4 0
-11 27 -15 60 -7 59 -18 75 -30 44 -3 -9 -6 -47 -6 -85 0 -38 -4 -69 -9 -69
-5 0 -12 -27 -16 -60 -4 -33 -11 -60 -15 -60 -5 0 -11 -8 -13 -18 -4 -16 -5
-16 -6 1 0 9 -5 17 -10 17 -5 0 -12 72 -16 160 -4 88 -10 160 -15 160 -4 0
-11 29 -15 65 -3 36 -11 65 -16 65 -5 0 -9 14 -9 30 0 18 -5 30 -13 30 -11 0
-15 -42 -20 -197 -3 -108 -10 -199 -15 -202 -5 -3 -13 -43 -17 -88 -4 -46 -11
-83 -16 -83 -5 0 -9 -13 -9 -30 0 -19 -5 -30 -14 -30 -13 0 -26 78 -26 161 0
22 -4 39 -9 39 -5 0 -12 29 -16 65 -3 36 -11 65 -16 65 -5 0 -9 10 -9 23 0 38
-12 67 -26 67 -10 0 -14 -16 -14 -60 0 -33 -4 -60 -9 -60 -5 0 -12 -43 -16
-95 -4 -52 -10 -95 -15 -95 -4 0 -11 -37 -15 -82 -6 -74 -15 -97 -37 -98 -3 0
-10 15 -13 33 -4 17 -11 35 -16 38 -5 3 -12 34 -15 70 -4 35 -11 67 -16 70 -5
3 -12 128 -15 278 -3 149 -10 271 -15 271 -4 0 -8 12 -8 26 0 22 -2 23 -14 11
-8 -8 -17 -49 -21 -103 -4 -49 -11 -91 -16 -94 -4 -3 -11 -78 -15 -168 -4 -89
-11 -162 -15 -162 -5 0 -9 -45 -9 -100 0 -82 -3 -100 -15 -100 -8 0 -18 12
-21 27 -4 16 -12 31 -17 34 -5 4 -12 30 -15 58 -2 28 -8 51 -12 51 -4 0 -10
32 -14 72 -6 69 -27 111 -34 68 -2 -11 -7 -20 -12 -20 -4 0 -11 -27 -15 -60
-4 -33 -11 -60 -16 -60 -5 0 -9 -7 -9 -15 0 -8 -6 -15 -14 -15 -14 0 -26 85
-26 193 0 31 -4 57 -9 57 -5 0 -12 79 -16 175 -6 139 -10 175 -21 175 -8 0
-14 -10 -14 -25 0 -14 -4 -25 -9 -25 -5 0 -12 -41 -16 -90 -4 -50 -11 -90 -16
-90 -5 0 -9 -40 -9 -89 0 -49 -3 -96 -6 -105 -9 -24 -24 -19 -24 7 0 21 -30
57 -49 57 -8 0 -21 221 -21 373 0 48 -4 87 -9 87 -11 0 -21 -35 -21 -72 0 -16
-4 -28 -9 -28 -5 0 -11 -22 -13 -48 -5 -47 -33 -92 -58 -92 -6 0 -10 55 -10
144 0 107 -3 145 -12 149 -9 3 -13 30 -12 95 1 70 -1 92 -11 92 -8 0 -16 -13
-20 -30 -4 -16 -11 -30 -16 -30 -16 0 -21 48 -17 160 3 95 1 110 -12 108 -8
-2 -16 -16 -18 -31 -2 -15 -9 -27 -18 -27 -12 0 -14 34 -14 205 0 128 -4 205
-10 205 -5 0 -13 -18 -16 -40 -4 -22 -10 -40 -14 -40 -4 0 -11 -26 -15 -57 -4
-32 -11 -61 -16 -64 -5 -3 -12 -60 -16 -127 -3 -67 -10 -122 -15 -122 -4 0 -8
-7 -8 -15 0 -8 5 -15 10 -15 6 0 10 -35 10 -85 0 -62 3 -85 13 -85 29 0 44
-37 50 -125 4 -53 11 -91 19 -96 7 -4 14 -37 16 -76 4 -55 9 -72 28 -90 19
-18 24 -32 24 -75 0 -63 6 -74 43 -83 23 -6 27 -12 27 -45 0 -24 5 -40 15 -44
8 -3 15 -10 15 -16 0 -6 7 -18 15 -26 8 -9 15 -29 15 -45 0 -16 5 -29 10 -29
6 0 10 -12 10 -28 0 -15 9 -35 20 -45 12 -10 20 -29 20 -47 0 -16 4 -30 9 -30
4 0 11 -18 14 -39 2 -21 15 -49 27 -61 20 -20 23 -20 34 -5 8 12 19 15 33 11
17 -5 22 -18 28 -66 4 -33 11 -60 15 -60 4 0 11 -12 14 -26 11 -43 56 -75 56
-40 0 7 11 25 25 40 l25 26 20 -20 c11 -11 20 -24 20 -29 0 -5 14 -23 31 -40
33 -34 85 -42 95 -16 7 17 34 20 34 4 0 -7 11 -22 24 -34 13 -12 27 -32 31
-43 9 -31 22 -28 65 16 20 22 47 41 59 45 23 6 51 -15 51 -38 0 -15 42 -28 64
-19 9 3 19 17 22 30 3 13 10 24 14 24 5 0 11 13 15 30 4 16 11 30 17 30 6 0
28 -18 49 -40 43 -44 74 -51 84 -19 4 12 16 30 27 41 19 19 22 19 30 4 13 -23
86 -22 95 2 4 9 10 20 15 23 5 3 11 45 15 92 3 48 10 87 14 87 5 0 9 7 9 15 0
10 10 15 30 15 23 0 31 5 36 25 3 14 10 25 14 25 4 0 10 14 14 31 3 18 18 43
33 57 23 21 28 35 31 89 4 56 7 64 27 69 27 7 35 29 35 98 0 39 5 53 25 72 21
19 25 32 25 79 0 48 2 55 20 55 11 0 20 7 20 15 0 8 5 15 10 15 6 0 10 36 10
89 0 69 4 93 16 106 9 9 19 36 22 61 2 24 9 44 13 44 13 0 11 28 -2 32 -14 5
-15 341 0 346 13 4 15 62 2 62 -4 0 -11 41 -14 92 -3 50 -10 94 -15 97 -5 3
-13 25 -17 49 -4 23 -11 42 -15 42 -5 0 -11 8 -13 18 -3 9 -5 -54 -6 -140z"/>
</g>
</svg>
